<?xml version="1.0" encoding="UTF-8"?>
<svg id="Calque_2" data-name="Calque 2" xmlns="http://www.w3.org/2000/svg" viewBox="0 0 762.42 172.39">
  <defs>
    <style>
      .cls-1 {
        fill: #eae200;
      }
    </style>
  </defs>
  <g id="Calque_3" data-name="Calque 3">
    <g>
      <path class="cls-1" d="M716.21,138.18c-.29-.01-1.6.07-1.6.07-.76,0-.86,4.74-1.04,6.4-.68,6.19-1.02,12.51-1.98,18.65-.25,1.59-.37,5.12-1.85,5.82-1.11.53-8.99.34-10.82.26-3.37-.16-7.61-.6-11.02-.98-1.58-.18-7.77-.84-8.45-1.64-.25-.29-.43-.59-.42-.99,1.42-4,2.63-8.18,3.5-12.33,3.05-14.46,3.44-29.6,5.13-44.29,3.97-34.61,8.24-69.21,12.31-103.81.93-2.89,3.31-1.54,5.21-1.51,12.42.14,25.91-.04,38.41-.46,3.49-.12,8.1-1.08,11.5-1.02,5.41.09-1.23,3.26-2.6,4.16-3.14,2.06-10.07,5.96-11.32,9.31-1.44,3.85.77,14.84,1.2,19.44,3.24,34.37,6.79,68.81,10.56,103.16.87,7.96.9,22.38,5.55,28.99,1.39,1.98,7.3,5.46,1.33,4.92-8.72-.9-24.88-.38-26.75-.62-2.8-.36-5.23-.14-5.27-1.03-.25-6.2-1.45-18.01-1.58-21.81-.1-2.95-.64-6.88-1.12-9.5-.07-.4-.38-1.2-.72-1.2-2.71,0-5.45.1-8.16,0ZM722.21,109.39l-3.6-43.67-3.6,43.67h7.2Z"/>
      <path class="cls-1" d="M119.88.13c8.91-.75,26.55,1.56,32.25,9.21,3.99,5.36,3.03,9.32,3.34,15.37,1.32,25.72.92,51.46.48,77.21-.19,11.01,2.52,19.99-2.68,30.43-6.54,13.12-28.54,12.34-41.2,11.57-11.02-.67-19.3-3.21-20.39-15.6,1.54-33.69-2.07-69.22-.03-102.69.3-4.83,1.5-11.82,4.42-15.73C100.42,4.08,112.87.73,119.88.13ZM122.49,28.89c-1.34,1.34-.96,12.97-1.05,15.5-.72,19.04-2.32,38.45-1.48,57.58.15,3.42.48,8.48,1.2,11.76,2.38,10.91,7.17,6.17,7.93-2.19,1.6-17.51,1.71-38.98.99-56.63-.25-6.19-1.04-18.24-3.03-23.84-.71-1.98-2.4-4.32-4.55-2.18Z"/>
      <path class="cls-1" d="M673.26,143.69c-.24.9-2.44.28-3.33.25-4.94-.17-9.27-.26-14.19-.49-9.67-.43-10.76,1.46-10.81-3.58-.21-18.24.9-37.24.5-56.64-.09-4.21,1.18-4.85-7.22-4.24l.14,62.42c-.4.84-1.32,1.46-2.26,1.49-6.08-.44-14.29.3-20.33-.05-3.52-.21-6.35.81-6.35-4.9V7.89c.02-2.69,1.12-3.37,3.6-3.6,5.01-.46,16.74-.57,21.63.01,1.06.13,1.96.32,2.58,1.26l1.01,46.97c-.02,2.06,4.68,1.07,5.53.24.45-.43.92-6.41.96-7.21.7-13.29.27-24.27.69-38.16.08-2.62.48-2.94,3.12-3.12,5.46-.37,16.39-.61,21.63,0,.8.09,3.11.95,3.11,1.69v137.7Z"/>
      <path class="cls-1" d="M410.2.38c15.47-1.42,40.13.27,40.35,20.54-.04,27.6,1.88,55.77.56,83.39-.54,11.3-2.41,25.57-14.09,30.64-7.59,3.29-25.48,3.43-34.17,3.26-7.07-.14-11.28-3.64-13.08-10.36-3.2-11.96-3.86-34.22-3.44-47.24.62-19.32-1.42-40.27-.04-59.29,1.02-14.02,10.64-19.72,23.92-20.93ZM419.83,26.85c-.38-.26-2.37-.14-2.84.16-1.63,1.04-.8,14.39-.92,17.1-.91,20.33-1.66,40.75-.02,61.12.08,1,.74,7.05.96,7.35.67.95,4.13-1.26,4.81-2.12,2.16-2.74,1.53-14.08,1.45-18.05-.11-5.26-.89-10.81-1-16.08-.32-15.71,2.12-28.08-1.08-43.97-.18-.88-1.03-5.3-1.36-5.53Z"/>
      <path class="cls-1" d="M215.72,2.87c13.48-.08,12.75-.99,13.58,1.77l.55,29.68c.73,22.33,2.99,44.79,1.94,67.15-.38,7.93-.9,23.97-4.08,30.95-4.08,8.96-19.98,7.79-28.31,8.16-17.06.76-31.23,4.28-33.77-17.1-1.04-8.77.32-17.58.44-26.31.34-24.3-.62-48.73.46-72.95.12-2.71.42-17.7,1.56-18.84s12.04-1.08,14.72-1.14,10.94-.81,11.24,0c.82,2.25.28,8.31.3,10.88.28,33.11-1.72,63.47.08,96.36.07,1.32.64,5.49,2.1,5.6,2.98.24,3.2-4.18,3.46-6.64,3.54-33.52,2.9-61.7,2.53-91.98l-1.36-15.25"/>
      <path class="cls-1" d="M489.7,113.26c1.03.72,3.77,1.3,4.45.08,2.78-4.96,2.93-6.26,2.81-11.92-.02-.91-.31-9.47-.32-10.49l-.38-85.83c.3-.95,1.68-1.19,2.55-1.29,3.53-.41,17.86-.53,21.01.12,1.99.41,4.24,1.64,4.43,3.64.11,1.09.23,4.26.22,5.59-.43,30.36.15,60.88.52,91.17.15,12.17,1.68,29.14-12.99,33.59-8.48,2.58-34.84.81-42.72-3.33-9.95-5.23-8.66-19.56-9.1-29.28-1.19-26.47-.08-53.23-.45-79.67-.07-5.22-.62-8.34-.39-16.66.14-5.09,3.98-5.19,8.14-5.07.92.03,5.34-.07,6.36-.05,3.65.05,10.31-.63,13.46-.03,2.29.44,1.75,6.94,1.7,8.91-.72,25.57-.64,51.15-.96,76.77-.04,3.39-.59,10.38-.36,14.04.42,6.62,1.39,9.3,2,9.73Z"/>
      <path class="cls-1" d="M273.9,26.03c-2.01-2.08-4.8,4.69-5.29,6.21-3.13,9.75-.66,17.33,7.85,22.65,7.97,4.98,23.72,9.9,25.66,20.41,1.48,8.02.89,17.1,1.16,25.23.28,8.69,1.63,17.6-.12,26.23-1.28,6.3-3.35,7.85-9.37,9.35-11.4,2.85-28.87,2.59-40.51.99-9.45-1.3-13.73-6.75-14.3-15.93s.08-19.4.04-28.83q-.03-7.86,2.12-8.88c7.79.69,16.9-.84,24.52,0,1.83.2,2.42,1.38,2.63,3.13.79,6.81-1.52,18.2,1.18,24.25,1.76,3.94,3.78,2.51,4.91-.86,2-5.98,1.31-17.36-.94-23.26-5.54-14.55-28.07-13.14-33.41-26.09-3.64-8.82-4.25-36.33-1.26-45.28,5.43-16.23,32.65-14.25,46.01-12.42,7.47,1.03,14.74,2.23,17.81,10.02,2.63,6.67,2.81,25.89,2.18,33.36-.11,1.32-.23,3.07-1.57,3.71-1.9.91-10.72.25-13.59.33-3.8.1-8.06.96-12,.52-3.28-.36-2.16-2.71-2.14-4.58.04-4.46,1.4-17.19-1.56-20.26Z"/>
      <path class="cls-1" d="M51.85,53.25L59.98,4.54c.72-.83,1.59-1.07,2.64-1.2,7.94-.93,16.92,1.13,24.97.48,1.22.11,1.44,1.5,1.51,2.56-6.19,29.98-15.13,60.44-18.97,90.83-2.81,22.28.32,44.08-1.49,65.69-.38,4.52,1.19,3.33-2.72,4.11-7.81,1.56-16.77-.22-24.74.45-1.47-.24-6.63.87-6.65-.72-.32-15.51.51-31.09.04-46.59-.79-26.63-5.2-53.48-11.19-79.49-1.16-5.02-4.33-19.93-6.66-23.57C13.33,11.79,5.38,8.22.53,4.52c-2.61-1.99,5.13-1.93,7.92-1.86,7.13.2,8.88.45,16.26.71,5.62.2,12.4-.63,17.78-.03.79.09,1.52.22,2.16.72l7.19,49.19Z"/>
      <path class="cls-1" d="M341.09,83.59c1.7,1.7-.22,10.47-.36,13.08-.16,2.85-.43,11.89,1.65,13.7,2.86,2.49,5.25.66,6.39-2.29,3.22-8.3-.95-21.55-6.62-28.19-6.54-7.66-18.52-9.17-24.38-17.85-5.16-7.64-3.77-17.09-3.9-25.85-.1-6.52-1.01-14.86.2-21.35,2.17-11.66,14.92-12.18,24.47-12.47,4.38-.13,9.55.36,13.94.49,12.53.39,23.75,1.44,24.73,16.54.44,6.8-.07,17.05-.5,24.01-.06.98-.51,5.58-.71,6-.5,1.03-4.41,1.37-5.74,1.46-7.09.46-14.32-.26-21.38-.74-2.54-1.23-.18-7.69,0-10.09.18-2.56-.35-12.4-3.21-13.14-2.46-.64-4.76,6.94-4.94,8.83-1.94,19.92,12.65,18.03,25.11,26.23,13.35,8.79,11.23,16.86,11.84,31.34.37,8.58,1.15,17.78.49,26.41-.38,5.03-2.77,10.24-7.06,13.1-8.25,5.5-32.45,6.42-42.03,4.28-7.05-1.58-12.91-4.53-14.98-11.89-1.55-5.48-.71-11.48-.71-17,0-6.91-.66-15.44-.04-22.11.25-2.74.85-3.35,3.6-3.6,7.14-.66,14.86,1.16,22.1.5.61.06,1.62.17,2.04.59Z"/>
      <path class="cls-1" d="M535.66,138.54c-.52-.52-.6-1.77-.61-2.51-.53-22.74.15-45.6.04-67.21,0-1.13-.06-23.02-.06-24.15,0-20.98-.52-18.39-.22-37.99.38-.87.92-1.76,1.95-1.89,14.15-.99,28.52-1.82,42.63.06,7.81,1.04,14.11,1.33,17.33,9.54,5.44,13.87,4.25,44.21,2.11,59.19-1.28,8.98-3.29,18.93-14.1,19.96-5.4.52-13.33-.92-18.22.01-.75.14-2.12,1.3-2.4,1.92-.83,1.86-.15,12.59-.23,15.6-.17,6.15.83,12.87.57,19.02-.13,3.03.57,8.99-1.76,9.02-5.57.07-18.78.43-24.52.03-.74-.05-1.99-.09-2.51-.61ZM563.86,71.48c4.27.52,4.61-.45,5.44-4.49,1.25-6.08,1.53-18.05,1.26-24.52-.24-5.58,1.92-16.02-6.7-15.13v44.14Z"/>
    </g>
  </g>
</svg>